<?xml version="1.0" encoding="UTF-8" ?>
<svg version="1.1" xmlns="http://www.w3.org/2000/svg" width="256" height="256">
    <path d="M0 0 C1.5070496 -0.00378784 3.0140957 -0.00929171 4.52113342 -0.01637268 C8.59552929 -0.03028286 12.66950077 -0.01918955 16.74387288 -0.00266147 C21.01670582 0.01123469 25.28951526 0.00472386 29.56236267 0.00120544 C36.73532922 -0.00149279 43.90812805 0.01194654 51.08105469 0.03515625 C59.36428525 0.06177372 67.64723568 0.06350843 75.93049437 0.05176789 C83.91286608 0.04097551 91.89513683 0.04718797 99.87750053 0.06132317 C103.26849197 0.0670693 106.6594092 0.06701114 110.05040169 0.06225777 C114.04536663 0.05747286 118.04002619 0.06765197 122.03493309 0.08921242 C123.4978037 0.09475953 124.96070379 0.0952647 126.42357635 0.09025955 C134.68442225 0.06554727 140.89955536 0.04968105 147.8793335 4.71316528 C153.74330452 10.97233793 155.15100196 19.87428623 157.26928711 27.93139648 C157.74847494 29.6962858 158.22941233 31.4607009 158.7119751 33.22467041 C160.00155313 37.95646401 161.26819044 42.69411216 162.53018188 47.43332672 C163.84412947 52.35387039 165.17726972 57.26920107 166.50952148 62.18481445 C168.12806239 68.15976092 169.7453076 74.13502996 171.35375977 80.11270142 C174.48705398 91.74766041 177.68655207 103.36080551 180.98503876 114.95002365 C181.63548891 117.23640762 182.28363881 119.52343045 182.93096924 121.81069946 C183.34679035 123.27948321 183.76262269 124.74826378 184.1784668 126.21704102 C184.37907337 126.92565592 184.57967995 127.63427082 184.78636551 128.3643589 C185.76401554 131.81337547 186.74749532 135.26052916 187.74353027 138.70428467 C188.83780849 142.48851231 189.90582165 146.27989256 190.97241211 150.07202148 C191.28994446 151.15058411 191.60747681 152.22914673 191.93463135 153.34039307 C194.23424945 161.62740658 196.12407163 170.99013811 192.44116211 179.06420898 C187.8934358 183.7316123 183.76517698 186.40825323 177.18983936 186.63593006 C175.51971323 186.6453748 173.84955038 186.64923591 172.17939758 186.64888 C171.259596 186.65255669 170.33979442 186.65623338 169.39212006 186.66002148 C166.29688956 186.67107194 163.20169261 186.67490448 160.10644531 186.67871094 C157.89240919 186.68497456 155.67837412 186.69162127 153.46434021 186.69862366 C147.43938312 186.71604277 141.41443398 186.72658794 135.38945794 186.73482919 C131.62627223 186.73997747 127.86308898 186.74605329 124.09990501 186.75234032 C113.67795418 186.76921099 103.25600493 186.78384569 92.83404255 186.79108906 C90.12992158 186.79299891 87.42580062 186.79491925 84.72167969 186.796875 C83.71355376 186.79760061 83.71355376 186.79760061 82.68506166 186.79834088 C71.80097368 186.80663883 60.9169957 186.83197191 50.03295574 186.86445568 C38.85474382 186.89754498 27.67657167 186.91520689 16.49830693 186.9187333 C10.22365967 186.92108526 3.94918624 186.93006497 -2.32541466 186.95519447 C-8.22940475 186.97845733 -14.13310633 186.98271543 -20.03713036 186.97243309 C-22.2026719 186.97193719 -24.36822757 186.97827355 -26.53372574 186.99198914 C-29.4935479 187.00968495 -32.45233212 187.00261283 -35.41215515 186.98945618 C-36.26616038 187.00042542 -37.1201656 187.01139467 -38.00004977 187.02269632 C-43.74890825 186.96113541 -48.13184509 185.73791094 -52.93383789 182.50170898 C-57.9894157 177.05724058 -58.19595162 173.50630206 -58.13210106 166.25690651 C-57.79392647 159.85172105 -56.53375909 153.65614838 -55.25927734 147.38330078 C-54.9708127 145.91674886 -54.68339326 144.44999104 -54.39692688 142.98304749 C-53.62322212 139.03886316 -52.83390544 135.09796403 -52.04062295 131.15767646 C-51.37735095 127.85579183 -50.7218197 124.55238927 -50.06620091 121.24897796 C-48.51916278 113.45487233 -46.95930135 105.66341078 -45.39111328 97.87353516 C-43.77746219 89.8567306 -42.18496867 81.8359292 -40.60285789 73.81284589 C-39.23889075 66.89971637 -37.86219545 59.98920582 -36.47526902 53.08064586 C-35.64914125 48.96500302 -34.8276879 44.8485732 -34.01836586 40.72958946 C-33.2573749 36.859666 -32.48044431 32.9932749 -31.6914196 29.12897301 C-31.40562955 27.71602395 -31.12532856 26.30195104 -30.85112762 24.88670731 C-27.68044898 8.56258001 -27.68044898 8.56258001 -21.35854912 3.15400124 C-14.94876788 -0.82912677 -7.27310432 -0.05218385 0 0 Z M143.06616211 48.50170898 C140.36992551 72.39313231 137.79857323 96.29543505 135.34643555 120.21313477 C134.8968197 124.59720178 134.44291688 128.98081479 133.98812485 133.36434746 C133.63260759 136.79736253 133.27984241 140.23065625 132.92786407 143.6640358 C132.76139528 145.28359196 132.59395117 146.9030482 132.42546844 148.52239609 C132.19310375 150.75854114 131.96460335 152.99504931 131.73706055 155.23168945 C131.60700623 156.49544403 131.4769519 157.75919861 131.34295654 159.06124878 C131.0904932 162.19928186 131.06616211 165.3535366 131.06616211 168.50170898 C145.91616211 168.50170898 160.76616211 168.50170898 176.06616211 168.50170898 C174.88865686 162.02543013 173.79686465 156.05760922 172.05419922 149.80004883 C171.76820862 148.76524384 171.76820862 148.76524384 171.47644043 147.70953369 C170.85334759 145.45927894 170.22345707 143.21098989 169.59350586 140.96264648 C169.14665283 139.35360917 168.70025704 137.74444482 168.25428772 136.13516235 C167.07997912 131.90198824 165.90000358 127.67041551 164.71862793 123.43920898 C163.55086572 119.25384714 162.38759464 115.06723874 161.22436523 110.88061523 C160.88219184 109.64912184 160.88219184 109.64912184 160.53310585 108.39274979 C160.07364544 106.73912503 159.61420134 105.08549574 159.15477371 103.43186188 C158.47105866 100.97183153 157.7866528 98.51199418 157.10214233 96.05218506 C152.69803852 80.2180282 148.37116758 64.3630607 144.06616211 48.50170898 C143.73616211 48.50170898 143.40616211 48.50170898 143.06616211 48.50170898 Z " fill="#8B5BF6" transform="translate(59.933837890625,34.498291015625)" />
</svg>
